<mxfile host="app.diagrams.net" modified="2024-07-17T10:23:08.724Z" agent="Mozilla/5.0 (Macintosh; Intel Mac OS X 10_15_7) AppleWebKit/537.36 (KHTML, like Gecko) Chrome/126.0.0.0 Safari/537.36" version="24.6.2" etag="15kdw-OCsOqTFa6cyXoW" type="github">
  <diagram name="Page-1" id="y7bBx9kBd1dPNpqTw5fK">
    <mxGraphModel>
      <root>
        <mxCell id="0" />
        <mxCell id="1" parent="0" />
      </root>
    </mxGraphModel>
  </diagram>
</mxfile>
